<?xml version="1.0" encoding="UTF-8"?>
<svg version="1.1" xmlns="http://www.w3.org/2000/svg" x="0px" y="0px"
	 viewBox="0 0 500 500" style="enable-background:new 0 0 500 500;" >
<path d="M0 0 C1.45108658 0.00273422 1.45108658 0.00273422 2.93148804 0.00552368 C17.26440977 0.05095174 31.21023917 0.55983928 45.3125 3.3125 C46.65803955 3.55395752 46.65803955 3.55395752 48.03076172 3.80029297 C107.84088904 14.62287989 165.35495829 48.68064457 202.3125 97.3125 C202.72918945 97.85277832 203.14587891 98.39305664 203.57519531 98.94970703 C211.2584873 108.9447116 218.00092968 119.40459036 224.3125 130.3125 C224.70679199 130.98974121 225.10108398 131.66698242 225.50732422 132.36474609 C238.68961173 155.2833756 247.29510918 180.85822563 252.625 206.6875 C252.77243652 207.39817627 252.91987305 208.10885254 253.07177734 208.84106445 C256.05713787 224.48358366 256.6873098 240.11919606 256.625 256 C256.62226578 257.45108658 256.62226578 257.45108658 256.61947632 258.93148804 C256.57404826 273.26440977 256.06516072 287.21023917 253.3125 301.3125 C253.15152832 302.20952637 252.99055664 303.10655273 252.82470703 304.03076172 C244.93444853 347.63561969 225.24485057 388.77240471 196.3125 422.3125 C195.67828125 423.05757813 195.0440625 423.80265625 194.390625 424.5703125 C182.57948485 438.07529833 169.82889772 450.74668743 155.3125 461.3125 C154.16255169 462.16899066 153.01281411 463.02576433 151.86328125 463.8828125 C143.67160474 469.9234414 135.15604922 475.28255071 126.3125 480.3125 C125.68069824 480.67698242 125.04889648 481.04146484 124.39794922 481.41699219 C101.37828699 494.59268166 75.85904551 503.27606895 49.9375 508.625 C49.22682373 508.77243652 48.51614746 508.91987305 47.78393555 509.07177734 C32.14141634 512.05713787 16.50580394 512.6873098 0.625 512.625 C-0.34239105 512.62317719 -1.3097821 512.62135437 -2.30648804 512.61947632 C-16.63940977 512.57404826 -30.58523917 512.06516072 -44.6875 509.3125 C-45.58452637 509.15152832 -46.48155273 508.99055664 -47.40576172 508.82470703 C-107.21588904 498.00212011 -164.72995829 463.94435543 -201.6875 415.3125 C-202.10418945 414.77222168 -202.52087891 414.23194336 -202.95019531 413.67529297 C-210.6334873 403.6802884 -217.37592968 393.22040964 -223.6875 382.3125 C-224.08179199 381.63525879 -224.47608398 380.95801758 -224.88232422 380.26025391 C-238.06461173 357.3416244 -246.67010918 331.76677437 -252 305.9375 C-252.14743652 305.22682373 -252.29487305 304.51614746 -252.44677734 303.78393555 C-255.43213787 288.14141634 -256.0623098 272.50580394 -256 256.625 C-255.99817719 255.65760895 -255.99635437 254.6902179 -255.99447632 253.69351196 C-255.94904826 239.36059023 -255.44016072 225.41476083 -252.6875 211.3125 C-252.44604248 209.96696045 -252.44604248 209.96696045 -252.19970703 208.59423828 C-241.37712011 148.78411096 -207.31935543 91.27004171 -158.6875 54.3125 C-158.14722168 53.89581055 -157.60694336 53.47912109 -157.05029297 53.04980469 C-147.0552884 45.3665127 -136.59540964 38.62407032 -125.6875 32.3125 C-125.01025879 31.91820801 -124.33301758 31.52391602 -123.63525391 31.11767578 C-100.7166244 17.93538827 -75.14177437 9.32989082 -49.3125 4 C-48.60182373 3.85256348 -47.89114746 3.70512695 -47.15893555 3.55322266 C-31.51641634 0.56786213 -15.88080394 -0.0623098 0 0 Z " fill="#16A085" transform="translate(255.6875,-0.3125)"/>
<path d="M0 0 C23.76 0 47.52 0 72 0 C72 43.23 72 86.46 72 131 C115.23 131 158.46 131 203 131 C203 154.76 203 178.52 203 203 C159.77 203 116.54 203 72 203 C72 246.23 72 289.46 72 334 C48.24 334 24.48 334 0 334 C0 290.77 0 247.54 0 203 C-43.23 203 -86.46 203 -131 203 C-131 179.24 -131 155.48 -131 131 C-87.77 131 -44.54 131 0 131 C0 87.77 0 44.54 0 0 Z " fill="#EBEFF0" transform="translate(220,89)"/>
<path d="M0 0 C7.87770985 6.75232273 7.87770985 6.75232273 10.76499939 9.59091187 C11.4225119 10.23548843 12.08002441 10.880065 12.75746155 11.54417419 C13.45230148 12.23004105 14.14714142 12.9159079 14.86303711 13.62255859 C15.99110779 14.73113472 15.99110779 14.73113472 17.14196777 15.86210632 C24.9268956 23.52123922 32.67790269 31.21479898 40.42602539 38.91113281 C44.10252808 42.56077886 47.78973874 46.19907625 51.48657227 49.828125 C55.96025552 54.22001351 60.41413698 58.63108826 64.85455513 63.05659866 C66.54742111 64.73720577 68.24717589 66.41090331 69.95387077 68.07746506 C72.33589494 70.40619493 74.69163825 72.75874837 77.04272461 75.11865234 C77.75173416 75.80047073 78.46074371 76.48228912 79.1912384 77.18476868 C82.39708366 80.45315751 84.41299643 82.61344081 84.46131897 87.32568359 C84.08764696 90.30190889 83.7128411 93.13746611 82.96875 96.0390625 C82.62517456 97.38677734 82.62517456 97.38677734 82.2746582 98.76171875 C82.019021 99.70660156 81.76338379 100.65148437 81.5 101.625 C81.09624146 103.13126953 81.09624146 103.13126953 80.68432617 104.66796875 C70.74847421 140.7224483 53.28377295 173.58189294 29 202 C28.36320313 202.74894531 27.72640625 203.49789062 27.0703125 204.26953125 C15.25297532 217.76520621 2.51448412 230.43558025 -12 241 C-13.14994831 241.85649066 -14.29968589 242.71326433 -15.44921875 243.5703125 C-23.64089526 249.6109414 -32.15645078 254.97005071 -41 260 C-41.63180176 260.36448242 -42.26360352 260.72896484 -42.91455078 261.10449219 C-62.89678061 272.54165632 -84.71417308 280.39187387 -107 286 C-108.14033691 286.28701782 -108.14033691 286.28701782 -109.30371094 286.57983398 C-118.44363247 288.00411911 -118.44363247 288.00411911 -122.05340195 285.67521 C-124.32062079 283.67234871 -126.42667687 281.57382497 -128.52734375 279.39672852 C-129.33805832 278.58878845 -130.14877289 277.78084839 -130.98405457 276.94842529 C-133.65473977 274.27726568 -136.29588019 271.57878804 -138.9375 268.87890625 C-140.78526848 267.01875288 -142.63473946 265.16028925 -144.48583984 263.30345154 C-148.35877693 259.41306945 -152.21695745 255.50856483 -156.06494141 251.59350586 C-161.49886543 246.06489748 -166.95837023 240.56211118 -172.42347145 235.06434357 C-180.13504081 227.30376476 -187.8345379 219.53111345 -195.5078125 211.73266602 C-196.27135544 210.96014999 -197.03489838 210.18763397 -197.82157898 209.39170837 C-198.50839249 208.69195892 -199.19520599 207.99220947 -199.90283203 207.27125549 C-200.50451202 206.66010674 -201.10619202 206.048958 -201.72610474 205.41928959 C-203 204 -203 204 -203 203 C-179.24 203 -155.48 203 -131 203 C-131 159.77 -131 116.54 -131 72 C-87.77 72 -44.54 72 0 72 C0 48.24 0 24.48 0 0 Z " fill="#0E7763" transform="translate(423,220)"/>
<path d="M0 0 C42.57 0 85.14 0 129 0 C129 42.57 129 85.14 129 129 C124.6410786 125.26378166 120.55675188 121.68203441 116.52662659 117.65361023 C116.02245223 117.15099586 115.51827786 116.64838149 114.99882549 116.13053638 C113.33221759 114.46787537 111.66915729 112.80171341 110.00610352 111.13549805 C108.80332235 109.93407362 107.60032892 108.73286166 106.3971405 107.53184509 C103.14738948 104.28663296 99.90078524 101.03829001 96.65489316 97.78921866 C93.25579872 94.38758579 89.85425764 90.98840089 86.45310974 87.58882141 C80.74957401 81.88710155 75.04814285 76.18328362 69.34790039 70.47827148 C62.74962401 63.87453794 56.14773172 57.27443571 49.54398018 50.67617768 C43.87325786 45.00998443 38.20447536 39.34185602 32.53732818 33.67208701 C29.15256979 30.28576671 25.76713241 26.90013266 22.37994576 23.51624107 C19.20201378 20.34118534 16.02651425 17.16371721 12.85292244 13.9843235 C11.6846872 12.81476 10.51558906 11.64605775 9.3455925 10.47825623 C7.7562451 8.89161735 6.16997177 7.30196975 4.58448792 5.71147156 C3.69390969 4.82051631 2.80333147 3.92956106 1.88576603 3.01160717 C0 1 0 1 0 0 Z " fill="#0E7763" transform="translate(90,293)"/>
</svg>
